# xmcd CD database file
#
# Track frame offsets:
#	150
#	16745
#	33742
#
# Disc length: 669 seconds
#
# Revision: 0
# Processed by: cddbd v1.5.1PL0 Copyright (c) Steve Scherf et al.
# Submitted via: CDex 1.51
#
DISCID=1a029b03
DTITLE=MAGIC - EAT-MAN'98
DYEAR=1998
DGENRE=Anime
TTITLE0=バーニング・ブルー
TTITLE1=旅人
TTITLE2=バーニング・ブルー　（カラオケ）
EXTD=YEAR: 1998
EXTT0=
EXTT1=
EXTT2=
PLAYORDER=
